<mxfile host="app.diagrams.net" modified="2021-11-04T17:06:20.856Z" agent="5.0 (Windows NT 10.0; Win64; x64) AppleWebKit/537.36 (KHTML, like Gecko) Chrome/95.0.4638.54 Safari/537.36" etag="9q4yTVaJxj8bUFuGk9-V" version="15.6.6" type="github">
  <diagram id="C5RBs43oDa-KdzZeNtuy" name="Page-1">
    <mxGraphModel dx="868" dy="450" grid="1" gridSize="10" guides="1" tooltips="1" connect="1" arrows="1" fold="1" page="1" pageScale="1" pageWidth="827" pageHeight="1169" math="0" shadow="0">
      <root>
        <mxCell id="WIyWlLk6GJQsqaUBKTNV-0" />
        <mxCell id="WIyWlLk6GJQsqaUBKTNV-1" parent="WIyWlLk6GJQsqaUBKTNV-0" />
        <mxCell id="f66gIIzewQlHNCp--3Wu-0" value="" style="whiteSpace=wrap;html=1;aspect=fixed;fillColor=default;strokeColor=default;fontColor=default;" vertex="1" parent="WIyWlLk6GJQsqaUBKTNV-1">
          <mxGeometry x="281" y="90" width="120" height="120" as="geometry" />
        </mxCell>
        <mxCell id="f66gIIzewQlHNCp--3Wu-1" value="MenuItem - Dosa&lt;br&gt;" style="text;html=1;strokeColor=default;fillColor=default;align=center;verticalAlign=middle;whiteSpace=wrap;rounded=0;fontColor=default;" vertex="1" parent="WIyWlLk6GJQsqaUBKTNV-1">
          <mxGeometry x="304" y="30" width="60" height="30" as="geometry" />
        </mxCell>
        <mxCell id="f66gIIzewQlHNCp--3Wu-4" value="&lt;span style=&quot;font-family: monospace; font-size: 0px;&quot;&gt;%3CmxGraphModel%3E%3Croot%3E%3CmxCell%20id%3D%220%22%2F%3E%3CmxCell%20id%3D%221%22%20parent%3D%220%22%2F%3E%3CmxCell%20id%3D%222%22%20value%3D%22Sambar%26lt%3Bbr%26gt%3B%22%20style%3D%22text%3Bhtml%3D1%3BstrokeColor%3Dnone%3BfillColor%3Dnone%3Balign%3Dcenter%3BverticalAlign%3Dmiddle%3BwhiteSpace%3Dwrap%3Brounded%3D0%3BfontColor%3Ddefault%3B%22%20vertex%3D%221%22%20parent%3D%221%22%3E%3CmxGeometry%20x%3D%22510%22%20y%3D%22110%22%20width%3D%2260%22%20height%3D%2230%22%20as%3D%22geometry%22%2F%3E%3C%2FmxCell%3E%3C%2Froot%3E%3C%2FmxGraphModel%3E&lt;/span&gt;" style="whiteSpace=wrap;html=1;aspect=fixed;fontColor=default;strokeColor=default;fillColor=default;" vertex="1" parent="WIyWlLk6GJQsqaUBKTNV-1">
          <mxGeometry x="537" y="349" width="141" height="141" as="geometry" />
        </mxCell>
        <mxCell id="f66gIIzewQlHNCp--3Wu-5" value="ModifierGroup - Sides&lt;br&gt;" style="text;html=1;strokeColor=default;fillColor=default;align=center;verticalAlign=middle;whiteSpace=wrap;rounded=0;fontColor=default;" vertex="1" parent="WIyWlLk6GJQsqaUBKTNV-1">
          <mxGeometry x="572" y="299" width="60" height="30" as="geometry" />
        </mxCell>
        <mxCell id="f66gIIzewQlHNCp--3Wu-6" value="Modifier1: &lt;br&gt;Sambar" style="text;html=1;strokeColor=default;fillColor=default;align=center;verticalAlign=middle;whiteSpace=wrap;rounded=0;fontColor=default;" vertex="1" parent="WIyWlLk6GJQsqaUBKTNV-1">
          <mxGeometry x="572" y="369" width="60" height="30" as="geometry" />
        </mxCell>
        <mxCell id="f66gIIzewQlHNCp--3Wu-8" value="Modifier2:&lt;br&gt;Chutney" style="text;html=1;strokeColor=default;fillColor=default;align=center;verticalAlign=middle;whiteSpace=wrap;rounded=0;fontColor=default;" vertex="1" parent="WIyWlLk6GJQsqaUBKTNV-1">
          <mxGeometry x="572" y="429" width="60" height="30" as="geometry" />
        </mxCell>
        <mxCell id="f66gIIzewQlHNCp--3Wu-9" value="ModifierGroups&lt;br&gt;" style="text;html=1;strokeColor=default;fillColor=default;align=center;verticalAlign=middle;whiteSpace=wrap;rounded=0;fontColor=default;" vertex="1" parent="WIyWlLk6GJQsqaUBKTNV-1">
          <mxGeometry x="311" y="120" width="60" height="30" as="geometry" />
        </mxCell>
        <mxCell id="f66gIIzewQlHNCp--3Wu-10" value="Sides, Poriyal&lt;br&gt;" style="text;html=1;strokeColor=default;fillColor=default;align=center;verticalAlign=middle;whiteSpace=wrap;rounded=0;fontColor=default;" vertex="1" parent="WIyWlLk6GJQsqaUBKTNV-1">
          <mxGeometry x="311" y="170" width="60" height="30" as="geometry" />
        </mxCell>
        <mxCell id="f66gIIzewQlHNCp--3Wu-11" value="" style="rounded=0;html=1;jettySize=auto;orthogonalLoop=1;fontSize=11;endArrow=block;endFill=0;endSize=8;strokeWidth=1;shadow=0;labelBackgroundColor=none;edgeStyle=orthogonalEdgeStyle;strokeColor=default;fontColor=default;" edge="1" parent="WIyWlLk6GJQsqaUBKTNV-1" source="f66gIIzewQlHNCp--3Wu-12" target="f66gIIzewQlHNCp--3Wu-15">
          <mxGeometry relative="1" as="geometry" />
        </mxCell>
        <mxCell id="f66gIIzewQlHNCp--3Wu-12" value="Lamp doesn&#39;t work" style="rounded=1;whiteSpace=wrap;html=1;fontSize=12;glass=0;strokeWidth=1;shadow=0;strokeColor=default;fontColor=default;" vertex="1" parent="WIyWlLk6GJQsqaUBKTNV-1">
          <mxGeometry x="24" y="546" width="120" height="40" as="geometry" />
        </mxCell>
        <mxCell id="f66gIIzewQlHNCp--3Wu-13" value="Yes" style="rounded=0;html=1;jettySize=auto;orthogonalLoop=1;fontSize=11;endArrow=block;endFill=0;endSize=8;strokeWidth=1;shadow=0;labelBackgroundColor=none;edgeStyle=orthogonalEdgeStyle;strokeColor=default;fontColor=default;" edge="1" parent="WIyWlLk6GJQsqaUBKTNV-1" source="f66gIIzewQlHNCp--3Wu-15" target="f66gIIzewQlHNCp--3Wu-19">
          <mxGeometry y="20" relative="1" as="geometry">
            <mxPoint as="offset" />
          </mxGeometry>
        </mxCell>
        <mxCell id="f66gIIzewQlHNCp--3Wu-14" value="No" style="edgeStyle=orthogonalEdgeStyle;rounded=0;html=1;jettySize=auto;orthogonalLoop=1;fontSize=11;endArrow=block;endFill=0;endSize=8;strokeWidth=1;shadow=0;labelBackgroundColor=none;strokeColor=default;fontColor=default;" edge="1" parent="WIyWlLk6GJQsqaUBKTNV-1" source="f66gIIzewQlHNCp--3Wu-15" target="f66gIIzewQlHNCp--3Wu-16">
          <mxGeometry y="10" relative="1" as="geometry">
            <mxPoint as="offset" />
          </mxGeometry>
        </mxCell>
        <mxCell id="f66gIIzewQlHNCp--3Wu-15" value="Lamp&lt;br&gt;plugged in?" style="rhombus;whiteSpace=wrap;html=1;shadow=0;fontFamily=Helvetica;fontSize=12;align=center;strokeWidth=1;spacing=6;spacingTop=-4;strokeColor=default;fontColor=default;" vertex="1" parent="WIyWlLk6GJQsqaUBKTNV-1">
          <mxGeometry x="34" y="636" width="100" height="80" as="geometry" />
        </mxCell>
        <mxCell id="f66gIIzewQlHNCp--3Wu-16" value="Plug in lamp" style="rounded=1;whiteSpace=wrap;html=1;fontSize=12;glass=0;strokeWidth=1;shadow=0;strokeColor=default;fontColor=default;" vertex="1" parent="WIyWlLk6GJQsqaUBKTNV-1">
          <mxGeometry x="184" y="656" width="120" height="40" as="geometry" />
        </mxCell>
        <mxCell id="f66gIIzewQlHNCp--3Wu-17" value="No" style="rounded=0;html=1;jettySize=auto;orthogonalLoop=1;fontSize=11;endArrow=block;endFill=0;endSize=8;strokeWidth=1;shadow=0;labelBackgroundColor=none;edgeStyle=orthogonalEdgeStyle;strokeColor=default;fontColor=default;" edge="1" parent="WIyWlLk6GJQsqaUBKTNV-1" source="f66gIIzewQlHNCp--3Wu-19" target="f66gIIzewQlHNCp--3Wu-20">
          <mxGeometry x="0.3333" y="20" relative="1" as="geometry">
            <mxPoint as="offset" />
          </mxGeometry>
        </mxCell>
        <mxCell id="f66gIIzewQlHNCp--3Wu-18" value="Yes" style="edgeStyle=orthogonalEdgeStyle;rounded=0;html=1;jettySize=auto;orthogonalLoop=1;fontSize=11;endArrow=block;endFill=0;endSize=8;strokeWidth=1;shadow=0;labelBackgroundColor=none;strokeColor=default;fontColor=default;" edge="1" parent="WIyWlLk6GJQsqaUBKTNV-1" source="f66gIIzewQlHNCp--3Wu-19" target="f66gIIzewQlHNCp--3Wu-21">
          <mxGeometry y="10" relative="1" as="geometry">
            <mxPoint as="offset" />
          </mxGeometry>
        </mxCell>
        <mxCell id="f66gIIzewQlHNCp--3Wu-19" value="Bulb&lt;br&gt;burned out?" style="rhombus;whiteSpace=wrap;html=1;shadow=0;fontFamily=Helvetica;fontSize=12;align=center;strokeWidth=1;spacing=6;spacingTop=-4;strokeColor=default;fontColor=default;" vertex="1" parent="WIyWlLk6GJQsqaUBKTNV-1">
          <mxGeometry x="34" y="756" width="100" height="80" as="geometry" />
        </mxCell>
        <mxCell id="f66gIIzewQlHNCp--3Wu-20" value="Repair Lamp" style="rounded=1;whiteSpace=wrap;html=1;fontSize=12;glass=0;strokeWidth=1;shadow=0;strokeColor=default;fontColor=default;" vertex="1" parent="WIyWlLk6GJQsqaUBKTNV-1">
          <mxGeometry x="24" y="896" width="120" height="40" as="geometry" />
        </mxCell>
        <mxCell id="f66gIIzewQlHNCp--3Wu-21" value="Replace Bulb" style="rounded=1;whiteSpace=wrap;html=1;fontSize=12;glass=0;strokeWidth=1;shadow=0;strokeColor=default;fontColor=default;" vertex="1" parent="WIyWlLk6GJQsqaUBKTNV-1">
          <mxGeometry x="184" y="776" width="120" height="40" as="geometry" />
        </mxCell>
        <mxCell id="f66gIIzewQlHNCp--3Wu-22" value="" style="whiteSpace=wrap;html=1;aspect=fixed;fontColor=default;strokeColor=default;fillColor=default;" vertex="1" parent="WIyWlLk6GJQsqaUBKTNV-1">
          <mxGeometry x="34" y="346" width="150" height="150" as="geometry" />
        </mxCell>
        <mxCell id="f66gIIzewQlHNCp--3Wu-24" value="ItemLink - Dosa - Dinner Menu&lt;br&gt;" style="text;html=1;strokeColor=default;fillColor=default;align=center;verticalAlign=middle;whiteSpace=wrap;rounded=0;fontColor=default;" vertex="1" parent="WIyWlLk6GJQsqaUBKTNV-1">
          <mxGeometry x="79" y="256" width="60" height="30" as="geometry" />
        </mxCell>
        <mxCell id="f66gIIzewQlHNCp--3Wu-25" value="Modifier1: &lt;br&gt;Sambar" style="text;html=1;strokeColor=default;fillColor=default;align=center;verticalAlign=middle;whiteSpace=wrap;rounded=0;fontColor=default;" vertex="1" parent="WIyWlLk6GJQsqaUBKTNV-1">
          <mxGeometry x="74" y="371" width="60" height="30" as="geometry" />
        </mxCell>
        <mxCell id="f66gIIzewQlHNCp--3Wu-26" value="Modifier2:&lt;br&gt;Chutney" style="text;html=1;strokeColor=default;fillColor=default;align=center;verticalAlign=middle;whiteSpace=wrap;rounded=0;fontColor=default;" vertex="1" parent="WIyWlLk6GJQsqaUBKTNV-1">
          <mxGeometry x="74" y="431" width="60" height="30" as="geometry" />
        </mxCell>
      </root>
    </mxGraphModel>
  </diagram>
</mxfile>
